<svg width="150" height="32" viewBox="0 0 150 32" fill="none" xmlns="http://www.w3.org/2000/svg">
<path d="M0.248657 4.31104V15.4231H11.457V26.6908H22.569V4.31264H0.248657V4.31104Z" fill="#B8B5AD"/>
<path d="M22.8193 26.9392H11.2083V15.6715H0V4.06055H22.8193V26.9376V26.9392ZM11.7072 26.4403H22.3204V4.56105H0.498896V15.1727H11.7072V26.4403Z" fill="#B8B5AD"/>
<path d="M11.457 26.6891H0.248657V15.4214L11.457 26.6891Z" fill="#B8B5AD"/>
<path d="M12.0569 26.9394H0V14.8184L12.0585 26.9394H12.0569ZM0.498896 26.4405H10.8586L0.498896 16.0279V26.4405Z" fill="#B8B5AD"/>
<path d="M26.7417 10.654C25.8449 10.654 25.8449 9.25195 26.7417 9.25195H28.3555C28.6699 9.25195 28.9153 9.49739 28.9153 9.78614V24.814H29.5425C30.4393 24.814 30.4393 26.216 29.5425 26.216H26.8524C25.9556 26.216 25.9556 24.814 26.8524 24.814H27.4796V10.654H26.7401H26.7417Z" fill="#B8B5AD"/>
<path d="M29.5442 26.4662H26.854C26.2492 26.4662 25.9316 25.9881 25.9316 25.5149C25.9316 25.0417 26.2492 24.5636 26.854 24.5636H27.2325V10.9025H26.7417C26.1353 10.9025 25.8193 10.4245 25.8193 9.95127C25.8193 9.47804 26.1353 9 26.7417 9H28.3555C28.8014 9 29.1656 9.35131 29.1656 9.78283V24.562H29.5442C30.1489 24.562 30.4665 25.0401 30.4665 25.5133C30.4665 25.9865 30.1505 26.4646 29.5442 26.4646V26.4662ZM26.854 25.0625C26.5411 25.0625 26.4305 25.3064 26.4305 25.5149C26.4305 25.7234 26.5411 25.9673 26.854 25.9673H29.5442C29.857 25.9673 29.9677 25.7234 29.9677 25.5149C29.9677 25.3064 29.857 25.0625 29.5442 25.0625H28.6667V9.78444C28.6667 9.62723 28.5271 9.5005 28.3555 9.5005H26.7417C26.4289 9.5005 26.3182 9.74433 26.3182 9.95288C26.3182 10.1614 26.4289 10.4053 26.7417 10.4053H27.7314V25.0641H26.854V25.0625Z" fill="#B8B5AD"/>
<path d="M36.718 26.3285C33.2434 26.3285 30.7104 23.68 30.7104 20.4059C30.7104 17.1318 33.2435 14.416 36.4486 14.416C39.6537 14.416 41.6476 17.0644 41.7374 20.2936C41.7374 20.6947 41.537 21.139 41.0429 21.139H32.1222C32.4799 23.3881 34.4081 24.9249 36.694 24.9249C37.5009 24.9249 38.7104 24.7259 39.4274 24.3682C39.9648 24.1003 40.2793 24.3249 40.4141 24.5671C40.5713 24.8783 40.5039 25.3018 40.0997 25.5248C39.2029 26.0366 37.7239 26.3269 36.7149 26.3269L36.718 26.3285ZM32.1222 19.7386H40.2808C39.9231 17.5345 38.6221 15.8196 36.426 15.8196C34.2299 15.8196 32.4589 17.6227 32.1237 19.7386H32.1222Z" fill="#B8B5AD"/>
<path d="M36.718 26.5783C33.2097 26.5783 30.4617 23.8673 30.4617 20.4071C30.4617 16.9469 33.1471 14.1685 36.4485 14.1685C39.7499 14.1685 41.8882 16.6854 41.9877 20.2884C41.9877 20.8226 41.6925 21.3905 41.0444 21.3905H32.4252C32.8712 23.3395 34.586 24.6774 36.6955 24.6774C37.4495 24.6774 38.6253 24.4913 39.3183 24.1464C39.9825 23.816 40.4413 24.1031 40.6338 24.448C40.8407 24.8603 40.7637 25.4474 40.2231 25.7458C39.2654 26.2928 37.7334 26.5783 36.718 26.5783ZM36.4485 14.6658C33.423 14.6658 30.9606 17.2405 30.9606 20.4055C30.9606 23.5705 33.4359 26.0778 36.718 26.0778C37.6436 26.0778 39.1018 25.8083 39.9792 25.3078C40.2664 25.1506 40.2905 24.8715 40.1942 24.679C40.0787 24.4705 39.8509 24.4368 39.5413 24.5908C38.7729 24.9742 37.5281 25.1731 36.6955 25.1731C34.2331 25.1731 32.252 23.5304 31.8766 21.1771L31.8301 20.8884H41.0428C41.4663 20.8884 41.4872 20.3911 41.4872 20.2916C41.3957 16.9806 39.3231 14.6626 36.4469 14.6626L36.4485 14.6658ZM40.5744 19.9868H32.122V19.7366L31.8766 19.6981C32.2488 17.3448 34.2043 15.5689 36.426 15.5689C38.6478 15.5689 40.1076 17.1121 40.5279 19.6965L40.5744 19.9852V19.9868ZM32.4252 19.4879H39.9825C39.5429 17.3399 38.2291 16.0678 36.426 16.0678C34.6229 16.0678 32.8648 17.518 32.4252 19.4879Z" fill="#B8B5AD"/>
<path d="M52.7196 26.2159C52.4292 26.2159 52.1822 25.9705 52.1822 25.6817V24.2572C51.2181 25.5935 49.6941 26.3282 47.968 26.3282C44.6506 26.3282 42.1176 23.6557 42.1176 20.4056C42.1176 17.1556 44.6281 14.528 47.8333 14.528C51.0384 14.528 52.1822 16.8428 52.1822 16.8428V15.083C52.1822 14.7718 52.4292 14.5264 52.7196 14.5264H53.9082C54.805 14.5264 54.805 15.9284 53.9082 15.9284H53.5938V24.8123H53.9082C54.805 24.8123 54.805 26.2143 53.9082 26.2143H52.7196V26.2159ZM47.8782 15.93C45.435 15.93 43.5068 17.9561 43.5068 20.3832C43.5068 22.8103 45.1655 24.9246 47.899 24.9246C49.3572 24.947 52.2912 23.8113 52.2912 20.4489C52.2912 18.0892 50.4529 15.93 47.875 15.93H47.8766H47.8782Z" fill="#B8B5AD"/>
<path d="M47.968 26.5786C44.5479 26.5786 41.869 23.8675 41.869 20.4074C41.869 16.9472 44.4902 14.2794 47.8349 14.2794C50.0454 14.2794 51.3159 15.3205 51.9335 16.0472V15.0847C51.9335 14.6404 52.2864 14.2778 52.7211 14.2778H53.9098C54.5146 14.2778 54.8322 14.7559 54.8322 15.2291C54.8322 15.7023 54.5162 16.1804 53.9098 16.1804H53.8457V24.5654H53.9098C54.5146 24.5654 54.8322 25.0434 54.8322 25.5166C54.8322 25.9899 54.5162 26.4679 53.9098 26.4679H52.7211C52.2944 26.4679 51.9335 26.1086 51.9335 25.6851V24.9487C50.9357 25.9931 49.5256 26.5802 47.9696 26.5802L47.968 26.5786ZM47.8333 14.7783C44.7677 14.7783 42.3663 17.2504 42.3663 20.4074C42.3663 23.5644 44.827 26.0797 47.9664 26.0797C49.6379 26.0797 51.0624 25.3803 51.9784 24.1114L52.4308 23.4857V25.6835C52.4308 25.8342 52.5655 25.9674 52.7195 25.9674H53.9082C54.221 25.9674 54.3317 25.7236 54.3317 25.515C54.3317 25.3065 54.221 25.0626 53.9082 25.0626H53.3452V15.6799H53.9082C54.221 15.6799 54.3317 15.436 54.3317 15.2275C54.3317 15.019 54.221 14.7751 53.9082 14.7751H52.7195C52.5607 14.7751 52.4308 14.9131 52.4308 15.0831V17.9L51.9576 16.9536C51.9126 16.8654 50.8363 14.7767 47.8333 14.7767V14.7783ZM47.9423 25.1733C47.9263 25.1733 47.9103 25.1733 47.8958 25.1733C44.8527 25.1733 43.2582 22.7623 43.2582 20.3817C43.2582 17.7894 45.3308 15.6799 47.8766 15.6799H47.8782C50.4496 15.6799 52.5415 17.8198 52.5415 20.4491C52.5415 21.7805 52.0859 22.9323 51.2229 23.7809C50.2411 24.7466 48.8792 25.1733 47.9423 25.1733ZM47.8766 16.1788C45.6035 16.1788 43.7555 18.0637 43.7555 20.3817C43.7555 22.5152 45.1784 24.6744 47.899 24.6744C48.7332 24.6857 49.978 24.3055 50.8731 23.4248C51.6496 22.6612 52.0426 21.6586 52.0426 20.4475C52.0426 18.0941 50.1737 16.1788 47.8782 16.1772L47.8766 16.1788Z" fill="#B8B5AD"/>
<path d="M65.8994 26.2157C65.609 26.2157 65.362 25.9703 65.362 25.6815V24.257C64.3979 25.5933 62.8723 26.328 61.1479 26.328C57.8304 26.328 55.2975 23.6555 55.2975 20.4054C55.2975 17.1554 57.808 14.5278 61.0131 14.5278C64.2182 14.5278 65.362 16.8426 65.362 16.8426V10.6296H65.0476C64.1509 10.6296 64.1509 9.25 65.0476 9.25H66.2347C66.525 9.25 66.7721 9.49544 66.7721 9.80665V24.8137H67.0865C67.9832 24.8137 67.9832 26.2157 67.0865 26.2157H65.8978H65.8994ZM61.058 15.9073C58.6149 15.9073 56.7332 17.9559 56.6867 20.383C56.6434 22.7668 58.3454 24.9244 61.0789 24.9244C62.5371 24.9468 65.3604 23.8111 65.3604 20.4487C65.3604 18.089 63.6343 15.9073 61.058 15.9073Z" fill="#B8B5AD"/>
<path d="M61.1479 26.5785C57.7278 26.5785 55.0472 23.8674 55.0472 20.4072C55.0472 16.947 57.6684 14.2793 61.0131 14.2793C63.2236 14.2793 64.4941 15.3204 65.1118 16.0471V10.8801H65.0476C64.4428 10.8801 64.1252 10.4069 64.1252 9.94004C64.1252 9.47323 64.4428 9 65.0476 9H66.2347C66.6694 9 67.0223 9.36094 67.0223 9.8069V24.5652H67.0865C67.6913 24.5652 68.0089 25.0433 68.0089 25.5165C68.0089 25.9897 67.6929 26.4678 67.0865 26.4678H65.6491V26.4245C65.3411 26.3186 65.1118 26.0218 65.1118 25.6833V24.947C64.1124 25.9913 62.7039 26.5785 61.1463 26.5785H61.1479ZM61.0131 14.7782C57.9475 14.7782 55.5461 17.2502 55.5461 20.4072C55.5461 23.5642 58.0069 26.0796 61.1479 26.0796C62.8194 26.0796 64.2439 25.3801 65.1599 24.1113L65.6123 23.4856V25.6817C65.6123 25.8325 65.747 25.9657 65.901 25.9657H67.0897C67.4025 25.9673 67.5132 25.7234 67.5132 25.5149C67.5132 25.3064 67.4025 25.0625 67.0897 25.0625H66.5266V9.80529C66.5266 9.63525 66.3967 9.49729 66.2379 9.49729H65.0508C64.738 9.49729 64.6273 9.73471 64.6273 9.93844C64.6273 10.1422 64.738 10.378 65.0508 10.378H65.6139V17.8967L65.1406 16.9502C65.0957 16.862 64.0177 14.7734 61.0147 14.7734L61.0131 14.7782ZM61.1206 25.1732C61.1045 25.1732 61.0901 25.1732 61.0741 25.1732C59.7731 25.1732 58.6309 24.7112 57.7727 23.8369C56.9 22.9482 56.4124 21.6858 56.4364 20.3768C56.4861 17.7299 58.5154 15.6573 61.0564 15.6573C63.9054 15.6573 65.609 18.094 65.609 20.4489C65.609 21.8077 65.1519 22.9771 64.2856 23.8289C63.275 24.8235 61.9612 25.1748 61.119 25.1748L61.1206 25.1732ZM61.058 16.1562C58.7913 16.1562 56.9818 18.0138 56.9369 20.3864C56.9145 21.5622 57.3508 22.6932 58.1304 23.4872C58.9004 24.2717 59.9223 24.6647 61.1206 24.6743C61.9243 24.6743 63.0921 24.3053 63.9391 23.4728C64.7187 22.706 65.1134 21.689 65.1134 20.4489C65.1134 18.3395 63.5974 16.1562 61.0596 16.1562H61.058Z" fill="#B8B5AD"/>
<path d="M76.3441 14.4381C76.681 14.4381 77.0387 14.6162 77.0387 15.0621V17.6882C77.0163 18.0459 76.7019 18.2881 76.365 18.2881C75.9607 18.2881 75.6704 18.0202 75.6704 17.6416C75.6704 16.3054 74.4159 15.6589 73.1374 15.6589C72.0161 15.6589 70.6044 16.2829 70.6044 17.5294C70.6044 18.6426 71.7033 19.1993 73.7646 19.6886C75.603 20.1329 77.4398 20.6013 77.4398 22.8055C77.4398 25.0096 75.3335 26.2127 73.4053 26.2127C72.284 26.2127 71.0761 25.7684 70.4248 25.032V25.5887C70.4248 26.033 70.067 26.2127 69.7302 26.2127C69.3933 26.2127 69.058 26.0346 69.058 25.5887V22.8071C69.058 22.406 69.4157 22.1173 69.7751 22.1173C70.2226 22.1173 70.5371 22.4285 70.5371 22.852C70.5371 24.3872 72.0386 24.9438 73.3845 24.923C74.5491 24.923 76.0506 24.1433 76.0506 22.8071C76.0506 21.4708 74.5491 21.2254 73.4502 20.9815C70.5595 20.3575 69.2585 19.334 69.2585 17.531C69.2585 15.5049 71.1867 14.4141 72.9802 14.4141C74.124 14.4141 75.133 14.9049 75.6704 15.5723V15.0605C75.6704 14.6162 76.0073 14.4365 76.3441 14.4365V14.4381Z" fill="#B8B5AD"/>
<path d="M73.4053 26.4628C72.3931 26.4628 71.3824 26.134 70.6734 25.5998C70.6686 26.1933 70.1825 26.4628 69.7302 26.4628C69.2778 26.4628 68.8094 26.1933 68.8094 25.5902V22.8085C68.8094 22.2471 69.3099 21.8685 69.7767 21.8685C70.3526 21.8685 70.7873 22.292 70.7873 22.8535C70.7873 23.3139 70.9397 23.6972 71.2429 23.9956C71.6904 24.4352 72.4941 24.6966 73.3812 24.6758C74.3726 24.6758 75.8019 24.0117 75.8019 22.8102C75.8019 21.8316 74.8458 21.5445 73.5946 21.2718L73.3973 21.2284C70.3638 20.5739 69.0099 19.435 69.0099 17.534C69.0099 15.3476 71.0552 14.1685 72.9802 14.1685C73.8994 14.1685 74.7865 14.4701 75.4233 14.9818C75.4634 14.4364 75.9046 14.191 76.3425 14.191C76.7805 14.191 77.2858 14.4637 77.2858 15.0636V17.6896C77.2553 18.1741 76.851 18.5399 76.3634 18.5399C75.8164 18.5399 75.4185 18.1629 75.4185 17.6447C75.4185 16.448 74.2715 15.9122 73.1342 15.9122C72.1861 15.9122 70.8515 16.4143 70.8515 17.5324C70.8515 18.4051 71.684 18.9425 73.8208 19.4494C75.6335 19.8874 77.6884 20.3847 77.6884 22.8085C77.6884 25.0977 75.51 26.466 73.4037 26.466L73.4053 26.4628ZM70.1761 24.3742L70.6124 24.8667C71.1932 25.5228 72.3161 25.9623 73.4069 25.9623C75.2421 25.9623 77.1927 24.8555 77.1927 22.8037C77.1927 20.752 75.5003 20.3638 73.7085 19.9291C71.6969 19.4526 70.3574 18.8623 70.3574 17.5276C70.3574 16.193 71.7723 15.4085 73.139 15.4085C74.5058 15.4085 75.9222 16.1063 75.9222 17.6399C75.9222 17.8773 76.1003 18.0361 76.3682 18.0361C76.5655 18.0361 76.7773 17.8982 76.7917 17.6688V15.0588C76.7917 14.7219 76.4805 14.685 76.3457 14.685C76.1869 14.685 75.9222 14.7332 75.9222 15.0588V16.278L75.4779 15.7278C74.9485 15.0716 73.9924 14.6642 72.9818 14.6642C71.299 14.6642 69.5104 15.6684 69.5104 17.5308C69.5104 19.1751 70.7055 20.1344 73.5048 20.7376L73.7021 20.7809C74.7993 21.0199 76.3024 21.3488 76.3024 22.8069C76.3024 24.3501 74.6084 25.1715 73.386 25.1715C72.3417 25.1875 71.4418 24.8875 70.8932 24.3469C70.4921 23.9523 70.29 23.4486 70.29 22.8503C70.29 22.5599 70.0847 22.3642 69.7783 22.3642C69.5569 22.3642 69.3115 22.5455 69.3115 22.8037V25.5854C69.3115 25.911 69.5761 25.9591 69.7334 25.9591C69.8665 25.9591 70.1777 25.9222 70.1777 25.5854V24.371L70.1761 24.3742Z" fill="#B8B5AD"/>
<path d="M90.3308 14.5264C91.2276 14.5264 91.2276 15.9284 90.3308 15.9284H90.0164V29.3986H90.3308C91.2276 29.3986 91.2276 30.7782 90.3308 30.7782H89.1422C88.8518 30.7782 88.6048 30.5327 88.6048 30.2215V23.8995C88.6048 23.8995 87.3936 26.2143 84.2559 26.2143C81.1181 26.2143 78.5402 23.5418 78.5402 20.3366C78.5402 17.1315 81.0732 14.4141 84.3906 14.4141C86.1167 14.4141 87.6407 15.2819 88.6048 16.6182V15.0605C88.6048 14.7718 88.8518 14.5264 89.1422 14.5264H90.3308ZM84.3232 15.8193C81.5897 15.8193 79.8845 17.9785 79.931 20.3607C79.976 22.7878 81.8592 24.8363 84.3024 24.8363C86.8803 24.8363 88.6048 22.6547 88.6048 20.2949C88.6048 16.9326 85.7814 15.7969 84.3232 15.8193Z" fill="#B8B5AD"/>
<path d="M90.3309 31.0282H89.1422C88.7074 31.0282 88.3545 30.6673 88.3545 30.2213V24.6757C87.7289 25.4024 86.4407 26.4628 84.2559 26.4628C80.9657 26.4628 78.29 23.7148 78.29 20.3348C78.29 16.9549 81.0267 14.1636 84.389 14.1636C85.905 14.1636 87.315 14.7957 88.3545 15.9186V15.0587C88.3545 14.6336 88.7155 14.2759 89.1422 14.2759H90.3309C90.9356 14.2759 91.2532 14.754 91.2532 15.2272C91.2532 15.7004 90.9356 16.1785 90.3309 16.1785H90.2667V29.1497H90.3309C90.9356 29.1497 91.2532 29.623 91.2532 30.0898C91.2532 30.5566 90.9356 31.0298 90.3309 31.0298V31.0282ZM88.855 22.8855V30.2229C88.855 30.393 88.985 30.5309 89.1438 30.5309H90.3325C90.6453 30.5309 90.756 30.2935 90.756 30.0914C90.756 29.8893 90.6453 29.6502 90.3325 29.6502H89.7694V15.6812H90.3325C90.6453 15.6812 90.756 15.4373 90.756 15.2288C90.756 15.0202 90.6453 14.7764 90.3325 14.7764H89.1438C88.9898 14.7764 88.855 14.9096 88.855 15.0603V17.3912L88.4026 16.7656C87.4385 15.4309 85.9771 14.6641 84.3906 14.6641C81.3026 14.6641 78.7905 17.2083 78.7905 20.3365C78.7905 23.4646 81.2433 25.9655 84.2575 25.9655C87.2717 25.9655 88.3738 23.8063 88.385 23.7838L88.855 22.8839V22.8855ZM84.3024 25.0864C81.8015 25.0864 79.7289 22.9689 79.6824 20.3653C79.6567 19.0563 80.1428 17.7955 81.0155 16.9067C81.8833 16.0228 83.0223 15.5705 84.3666 15.5689C85.2071 15.5689 86.521 15.9186 87.5332 16.9148C88.3994 17.7666 88.8566 18.936 88.8566 20.2947C88.8566 22.6497 87.153 25.0864 84.304 25.0864H84.3024ZM84.3232 16.0678C83.1538 16.0678 82.1336 16.4784 81.3716 17.2565C80.592 18.0505 80.1588 19.1798 80.1813 20.3557C80.2246 22.6882 82.0726 24.5859 84.3024 24.5859C86.8402 24.5859 88.3561 22.4042 88.3561 20.2931C88.3561 19.0531 87.9615 18.0361 87.1819 17.2693C86.3204 16.4223 85.1285 16.0533 84.3281 16.0678H84.3249H84.3232Z" fill="#B8B5AD"/>
<path d="M101.337 15.9303C100.44 15.9303 100.44 14.5283 101.337 14.5283H102.659C102.973 14.5283 103.22 14.7737 103.22 15.0625V24.7917H103.758C104.654 24.7917 104.654 26.2162 103.758 26.2162H102.369C102.054 26.2162 101.807 25.9708 101.807 25.6596V24.4132C100.91 25.7045 99.3415 26.2162 97.84 26.2162C94.4793 26.2162 92.8205 24.0346 92.8205 21.1182V15.9303H92.3505C91.4538 15.9303 91.4538 14.5283 92.3505 14.5283H93.6724C93.9868 14.5283 94.2338 14.7737 94.2338 15.0625V21.1182C94.2338 23.2565 95.3776 24.8142 97.8416 24.8142C100.06 24.8142 101.809 23.5678 101.809 20.8519V15.9319H101.339L101.337 15.9303Z" fill="#B8B5AD"/>
<path d="M103.758 26.4665H102.369C101.915 26.4665 101.558 26.112 101.558 25.6596V25.0966C100.676 25.974 99.3591 26.4649 97.84 26.4649C94.5899 26.4649 92.5703 24.4148 92.5703 21.1166V16.1774H92.3489C91.7441 16.1774 91.4265 15.6994 91.4265 15.2261C91.4265 14.7529 91.7425 14.2749 92.3489 14.2749H93.6707C94.1183 14.2749 94.4808 14.6262 94.4808 15.0577V21.115C94.4808 23.3063 95.7048 24.5624 97.84 24.5624C100.168 24.5624 101.558 23.1748 101.558 20.8487V16.179H101.088V16.1469C100.646 16.0346 100.415 15.6288 100.415 15.2261C100.415 14.7529 100.731 14.2749 101.337 14.2749H102.659C103.106 14.2749 103.469 14.6262 103.469 15.0577V24.5383H103.756C104.363 24.5383 104.679 25.0228 104.679 25.5008C104.679 25.9789 104.363 26.4633 103.756 26.4633L103.758 26.4665ZM102.057 23.6159V25.6596C102.057 25.8345 102.19 25.9676 102.369 25.9676H103.758C104.17 25.9676 104.181 25.5521 104.181 25.504C104.181 25.4559 104.17 25.0404 103.758 25.0404H102.972V15.0609C102.972 14.9037 102.832 14.777 102.66 14.777H101.339C101.026 14.777 100.915 15.0208 100.915 15.2293C100.915 15.4379 101.026 15.6817 101.339 15.6817H102.059V20.8535C102.059 23.4523 100.444 25.0661 97.8416 25.0661C95.4257 25.0661 93.9836 23.5903 93.9836 21.1198V15.0625C93.9836 14.9053 93.844 14.7786 93.6723 14.7786H92.3505C92.0377 14.7786 91.927 15.0224 91.927 15.2309C91.927 15.4395 92.0377 15.6833 92.3505 15.6833H93.0708V21.1214C93.0708 24.1581 94.8546 25.9708 97.8416 25.9708C99.4842 25.9708 100.856 25.3516 101.605 24.2752L102.059 23.6207L102.057 23.6159Z" fill="#B8B5AD"/>
<path d="M115.861 26.2159C115.571 26.2159 115.324 25.9705 115.324 25.6817V24.2572C114.36 25.5935 112.836 26.3282 111.11 26.3282C107.792 26.3282 105.259 23.6557 105.259 20.4056C105.259 17.1556 107.77 14.528 110.975 14.528C114.18 14.528 115.324 16.8428 115.324 16.8428V15.083C115.324 14.7718 115.571 14.5264 115.861 14.5264H117.05C117.947 14.5264 117.947 15.9284 117.05 15.9284H116.735V24.8123H117.05C117.947 24.8123 117.947 26.2143 117.05 26.2143H115.861V26.2159ZM111.02 15.93C108.577 15.93 106.648 17.9561 106.648 20.3832C106.648 22.8103 108.307 24.9246 111.041 24.9246C112.499 24.947 115.433 23.8113 115.433 20.4489C115.433 18.0892 113.595 15.93 111.018 15.93H111.02Z" fill="#B8B5AD"/>
<path d="M111.11 26.5786C107.69 26.5786 105.011 23.8675 105.011 20.4074C105.011 16.9472 107.632 14.2794 110.976 14.2794C113.187 14.2794 114.458 15.3205 115.075 16.0472V15.0847C115.075 14.6404 115.428 14.2778 115.863 14.2778H117.051C117.656 14.2778 117.974 14.7559 117.974 15.2291C117.974 15.7023 117.656 16.1804 117.051 16.1804H116.987V24.5654H117.051C117.656 24.5654 117.974 25.0434 117.974 25.5166C117.974 25.9899 117.656 26.4679 117.051 26.4679H115.863C115.436 26.4679 115.075 26.1086 115.075 25.6851V24.9487C114.076 25.9931 112.667 26.5802 111.11 26.5802V26.5786ZM110.976 14.7783C107.911 14.7783 105.509 17.2504 105.509 20.4074C105.509 23.5644 107.969 26.0797 111.11 26.0797C112.781 26.0797 114.206 25.3803 115.122 24.1114L115.574 23.4857V25.6819C115.574 25.8326 115.709 25.9658 115.863 25.9658H117.051C117.364 25.9658 117.475 25.722 117.475 25.5134C117.475 25.3049 117.364 25.061 117.051 25.061H116.488V15.6783H117.051C117.364 15.6783 117.475 15.4344 117.475 15.2259C117.475 15.0174 117.364 14.7735 117.051 14.7735H115.863C115.704 14.7735 115.574 14.9115 115.574 15.0815V17.8984L115.101 16.952C115.056 16.8638 113.978 14.7751 110.976 14.7751V14.7783ZM111.084 25.1733C108.012 25.2102 106.398 22.7751 106.398 20.3817C106.398 17.7894 108.471 15.6799 111.018 15.6799C113.59 15.6799 115.682 17.8198 115.682 20.4491C115.682 21.7805 115.226 22.9323 114.363 23.7809C113.381 24.7466 112.019 25.1733 111.082 25.1733H111.084ZM111.018 16.1788C108.745 16.1788 106.897 18.0637 106.897 20.3817C106.897 22.5152 108.32 24.6744 111.041 24.6744C111.884 24.6857 113.12 24.3055 114.015 23.4248C114.791 22.6612 115.184 21.6586 115.184 20.4475C115.184 18.0941 113.315 16.1788 111.02 16.1772L111.018 16.1788Z" fill="#B8B5AD"/>
<path d="M121.174 25.6821C121.174 25.9709 120.927 26.2163 120.637 26.2163H119.472C118.555 26.2163 118.555 24.8143 119.472 24.8143H119.762V15.9096H119.472C118.555 15.9096 118.555 14.53 119.472 14.53H120.637C120.927 14.53 121.174 14.7754 121.174 15.0866V16.5111C122.206 14.9968 123.64 14.5284 125.343 14.5284C125.724 14.5059 126.083 14.7273 126.083 15.1957C126.083 15.9079 125.343 15.9079 125.343 15.9079H125.276C123.46 15.9079 121.174 16.9089 121.174 19.3826V25.6837V25.6821Z" fill="#B8B5AD"/>
<path d="M120.637 26.4663H119.472C118.856 26.4663 118.534 25.9883 118.534 25.515C118.534 25.0418 118.856 24.5638 119.472 24.5638H119.514V16.1579H119.472C118.856 16.1579 118.534 15.6847 118.534 15.2179C118.534 14.7511 118.856 14.2778 119.472 14.2778H120.637C121.071 14.2778 121.424 14.6388 121.424 15.0847V15.7906C122.361 14.7623 123.625 14.2794 125.343 14.2794C125.606 14.265 125.876 14.3532 126.06 14.5265C126.239 14.6949 126.332 14.9259 126.332 15.1954C126.332 15.9012 125.74 16.1579 125.342 16.1579H125.274C123.418 16.1579 121.423 17.1669 121.423 19.3823V25.6835C121.423 26.107 121.062 26.4647 120.635 26.4647L120.637 26.4663ZM119.471 25.0643C119.146 25.0643 119.031 25.3081 119.031 25.5166C119.031 25.7252 119.146 25.969 119.471 25.969H120.635C120.789 25.969 120.924 25.8359 120.924 25.6851V19.3855C120.924 16.9407 123.112 15.6622 125.274 15.6622H125.342C125.456 15.6606 125.833 15.6221 125.833 15.1986C125.833 15.0671 125.794 14.9644 125.717 14.8922C125.632 14.812 125.502 14.7719 125.356 14.7799C123.483 14.7799 122.26 15.3574 121.379 16.6536L120.924 17.3225V15.0879C120.924 14.9179 120.794 14.7799 120.635 14.7799H119.471C119.146 14.7799 119.031 15.0174 119.031 15.2195C119.031 15.4216 119.146 15.6606 119.471 15.6606H120.011V25.0659H119.471V25.0643Z" fill="#B8B5AD"/>
<path d="M131.686 26.3285C128.212 26.3285 125.679 23.68 125.679 20.4059C125.679 17.1318 128.212 14.416 131.417 14.416C134.622 14.416 136.616 17.0644 136.706 20.2936C136.706 20.6947 136.505 21.139 136.011 21.139H127.09C127.45 23.3881 129.376 24.9249 131.662 24.9249C132.469 24.9249 133.679 24.7259 134.396 24.3682C134.933 24.1003 135.248 24.3249 135.382 24.5671C135.539 24.8783 135.472 25.3018 135.068 25.5248C134.171 26.0366 132.692 26.3269 131.683 26.3269L131.686 26.3285ZM127.09 19.7386H135.249C134.891 17.5345 133.59 15.8196 131.394 15.8196C129.198 15.8196 127.427 17.6227 127.092 19.7386H127.09Z" fill="#B8B5AD"/>
<path d="M131.686 26.5783C128.178 26.5783 125.43 23.8673 125.43 20.4071C125.43 16.9469 128.115 14.1685 131.417 14.1685C134.718 14.1685 136.855 16.6854 136.956 20.2884C136.956 20.8226 136.661 21.3905 136.013 21.3905H127.394C127.839 23.3395 129.556 24.6774 131.664 24.6774C132.418 24.6774 133.594 24.4913 134.287 24.1464C134.949 23.8176 135.402 24.0855 135.604 24.448C135.811 24.8603 135.734 25.4474 135.191 25.7458C134.234 26.2928 132.703 26.5783 131.686 26.5783ZM131.417 14.6658C128.391 14.6658 125.929 17.2405 125.929 20.4055C125.929 23.5705 128.404 26.0778 131.686 26.0778C132.613 26.0778 134.07 25.8083 134.948 25.3078C135.235 25.1506 135.259 24.8715 135.163 24.679C135.047 24.4705 134.819 24.4368 134.51 24.5908C133.741 24.9742 132.496 25.1731 131.665 25.1731C129.205 25.1731 127.222 23.5304 126.847 21.1771L126.8 20.8884H136.013C136.436 20.8884 136.457 20.3911 136.457 20.2916C136.364 16.9806 134.291 14.6626 131.417 14.6626V14.6658ZM135.544 19.9868H127.092V19.7366L126.847 19.6981C127.219 17.3448 129.174 15.5689 131.396 15.5689C133.618 15.5689 135.077 17.1121 135.498 19.6965L135.544 19.9852V19.9868ZM127.394 19.4879H134.951C134.511 17.3399 133.197 16.0678 131.394 16.0678C129.591 16.0678 127.833 17.518 127.394 19.4879Z" fill="#B8B5AD"/>
<path d="M147.689 26.2157C147.399 26.2157 147.152 25.9703 147.152 25.6815V24.257C146.188 25.5933 144.666 26.328 142.938 26.328C139.62 26.328 137.087 23.6555 137.087 20.4054C137.087 17.1554 139.598 14.5278 142.803 14.5278C146.008 14.5278 147.152 16.8426 147.152 16.8426V10.6296H146.838C145.941 10.6296 145.941 9.25 146.838 9.25H148.026C148.317 9.25 148.564 9.49544 148.564 9.80665V24.8137H148.878C149.775 24.8137 149.775 26.2157 148.878 26.2157H147.689ZM142.846 15.9073C140.403 15.9073 138.522 17.9559 138.475 20.383C138.432 22.7668 140.134 24.9244 142.867 24.9244C144.325 24.9468 147.149 23.8111 147.149 20.4487C147.149 18.089 145.423 15.9073 142.846 15.9073Z" fill="#B8B5AD"/>
<path d="M142.936 26.5785C139.516 26.5785 136.837 23.8674 136.837 20.4072C136.837 16.947 139.458 14.2793 142.803 14.2793C145.014 14.2793 146.284 15.3204 146.902 16.0471V10.8801H146.838C146.233 10.8801 145.915 10.4069 145.915 9.94004C145.915 9.47323 146.231 9 146.838 9H148.026C148.459 9 148.812 9.36094 148.812 9.8069V24.5652H148.877C149.481 24.5652 149.799 25.0433 149.799 25.5165C149.799 25.9897 149.481 26.4678 148.877 26.4678H147.439V26.4245C147.131 26.3186 146.902 26.0218 146.902 25.6833V24.947C145.904 25.9913 144.494 26.5785 142.936 26.5785ZM142.803 14.7782C139.738 14.7782 137.336 17.2502 137.336 20.4072C137.336 23.5642 139.795 26.0796 142.936 26.0796C144.608 26.0796 146.032 25.3801 146.948 24.1113L147.401 23.4856V25.6833C147.401 25.8341 147.535 25.9673 147.688 25.9673H148.877C149.189 25.9689 149.3 25.725 149.3 25.5165C149.3 25.308 149.189 25.0641 148.877 25.0641H148.313V9.8069C148.313 9.63685 148.184 9.49889 148.026 9.49889H146.838C146.525 9.49889 146.414 9.73631 146.414 9.94004C146.414 10.1438 146.525 10.3796 146.838 10.3796H147.401V17.8983L146.927 16.9519C146.883 16.8636 145.805 14.775 142.802 14.775L142.803 14.7782ZM142.911 25.1732C142.895 25.1732 142.88 25.1732 142.864 25.1732C141.563 25.1732 140.419 24.7112 139.561 23.8369C138.688 22.9482 138.201 21.6858 138.225 20.3768C138.275 17.7299 140.305 15.6573 142.846 15.6573C145.695 15.6573 147.399 18.094 147.399 20.4489C147.399 21.8077 146.942 22.9771 146.076 23.8289C145.065 24.8235 143.751 25.1748 142.909 25.1748L142.911 25.1732ZM142.846 16.1562C140.58 16.1562 138.769 18.0138 138.724 20.3864C138.701 21.5622 139.136 22.6932 139.917 23.4872C140.689 24.2717 141.701 24.6839 142.907 24.6743C143.711 24.6743 144.879 24.3053 145.726 23.4728C146.506 22.706 146.9 21.689 146.9 20.4489C146.9 18.3395 145.384 16.1562 142.846 16.1562Z" fill="#B8B5AD"/>
</svg>
