<svg width="171" height="51" viewBox="0 0 171 51" fill="none" xmlns="http://www.w3.org/2000/svg">
<path d="M6.74373 42.8538C3.63096 41.969 3.55577 41.1285 8.48297 39.4664C14.6419 37.3887 63.8924 28.284 111.811 31.1158C150.147 33.3812 116.325 38.2796 94.6226 40.4456" stroke="#6B7FD4"/>
<path d="M15.8476 25.0561C12.7543 25.0561 11.2076 24.1814 11.2076 22.4321C11.2076 20.8961 12.1676 19.4241 14.0876 18.0161C15.8583 16.7148 17.5543 16.0641 19.1756 16.0641C19.8583 16.0641 20.1996 16.2881 20.1996 16.7361C20.1996 17.9521 19.133 19.1681 16.9996 20.3841C16.7223 20.5334 16.477 20.6614 16.2636 20.7681C16.0716 20.8534 15.9223 20.8961 15.8156 20.8961C15.645 20.8961 15.5596 20.8534 15.5596 20.7681C15.5596 20.6188 15.7836 20.4161 16.2316 20.1601C17.4263 19.4774 18.269 18.6988 18.7596 17.8241C18.8023 17.7388 18.845 17.6321 18.8876 17.5041C18.9516 17.3761 18.9836 17.3014 18.9836 17.2801C18.9836 17.1734 18.8983 17.1201 18.7276 17.1201C17.4263 17.1201 16.0183 17.6214 14.5036 18.6241C12.8396 19.7121 12.0076 20.8748 12.0076 22.1121C12.0076 23.2641 13.309 23.8401 15.9116 23.8401C17.8956 23.8401 20.1036 23.4881 22.5356 22.7841C25.437 21.9521 27.293 20.9174 28.1036 19.6801C28.3383 19.3174 28.4556 18.9654 28.4556 18.6241C28.4556 17.2801 26.6743 16.0748 23.1116 15.0081C22.6423 14.8588 22.269 14.7521 21.9916 14.6881C21.7143 14.6241 21.3303 14.5174 20.8396 14.3681C20.3063 14.1974 19.869 14.0481 19.5276 13.9201C19.1863 13.7708 18.8983 13.6321 18.6636 13.5041C17.7676 12.9921 17.3196 12.3521 17.3196 11.5841C17.3196 10.1121 18.6103 8.8534 21.1916 7.80807C23.3676 6.9334 25.2983 6.49607 26.9836 6.49607C29.2023 6.49607 30.3116 7.05074 30.3116 8.16007C30.3116 8.6934 30.1196 9.28007 29.7356 9.92007C29.3303 10.6241 28.8716 10.9761 28.3596 10.9761C28.1676 10.9761 28.0716 10.9014 28.0716 10.7521C28.0716 10.7094 28.253 10.4748 28.6156 10.0481C28.8503 9.77074 28.9996 9.53607 29.0636 9.34407C29.149 9.15207 29.1916 8.9814 29.1916 8.83207C29.1916 7.97874 28.445 7.55207 26.9516 7.55207C26.5463 7.55207 26.109 7.58407 25.6396 7.64807C25.1703 7.69074 24.669 7.77607 24.1356 7.90407C22.9836 8.1814 21.821 8.57607 20.6476 9.08807C18.9623 9.85607 18.1196 10.6134 18.1196 11.3601C18.1196 12.0214 19.101 12.6401 21.0636 13.2161C22.7703 13.7068 24.0823 14.0908 24.9996 14.3681C25.9383 14.6454 26.461 14.8054 26.5676 14.8481C28.5516 15.6374 29.5436 16.6828 29.5436 17.9841C29.5436 18.8588 29.085 19.7228 28.1676 20.5761C26.8023 21.8774 24.8823 22.9654 22.4076 23.8401C20.0823 24.6508 17.8956 25.0561 15.8476 25.0561ZM33.7136 15.8401C33.2016 15.8401 32.9456 15.5841 32.9456 15.0721C32.9456 14.8161 33.0416 14.5921 33.2336 14.4001C33.447 14.1868 33.6923 14.0801 33.9696 14.0801C34.4816 14.0801 34.7376 14.3361 34.7376 14.8481C34.7376 15.1041 34.6416 15.3281 34.4496 15.5201C34.2363 15.7334 33.991 15.8401 33.7136 15.8401ZM31.8576 24.5441C30.6843 24.5441 30.0976 23.9148 30.0976 22.6561C30.0976 22.0588 30.311 21.1841 30.7376 20.0321C30.9296 19.4988 31.1216 19.0508 31.3136 18.6881C31.527 18.3041 31.7403 17.9521 31.9536 17.6321C32.0816 17.4401 32.231 17.3441 32.4016 17.3441C32.5723 17.3441 32.743 17.4294 32.9136 17.6001C33.0203 17.7068 33.0736 17.8454 33.0736 18.0161C33.0736 18.1654 33.031 18.3148 32.9456 18.4641C32.4763 19.1894 32.0923 19.9254 31.7936 20.6721C31.495 21.3974 31.3456 22.0481 31.3456 22.6241C31.3456 23.3921 31.623 23.7761 32.1776 23.7761C32.4763 23.7761 32.8176 23.7014 33.2016 23.5521C33.5856 23.3814 33.9696 23.1254 34.3536 22.7841C34.6096 22.5494 34.8763 22.2828 35.1536 21.9841C35.4523 21.6854 35.751 21.3334 36.0496 20.9281C36.6043 20.2454 36.8816 19.9041 36.8816 19.9041C36.9883 19.9041 37.0416 19.9894 37.0416 20.1601C37.0416 20.3308 36.967 20.5014 36.8176 20.6721C34.8763 23.2534 33.223 24.5441 31.8576 24.5441ZM36.4884 24.0001C35.827 24.0001 35.4964 23.6374 35.4964 22.9121C35.4964 21.5894 36.1684 20.0641 37.5124 18.3361C38.2164 17.4188 38.9097 16.7361 39.5924 16.2881C40.275 15.8188 40.947 15.6161 41.6084 15.6801C41.971 14.4428 42.3444 13.2908 42.7284 12.2241C43.1124 11.1574 43.5284 10.1654 43.9764 9.24807C45.427 6.2614 46.8457 4.76807 48.2324 4.76807C49.1284 4.76807 49.5764 5.28007 49.5764 6.30407C49.5764 8.54407 47.027 12.6614 41.9284 18.6561C41.8004 19.3814 41.7364 20.0854 41.7364 20.7681C41.7364 22.3894 42.0777 23.2001 42.7604 23.2001C43.2084 23.2001 43.859 22.6881 44.7124 21.6641C45.5657 20.6188 46.035 20.0961 46.1204 20.0961C46.1844 20.0961 46.2164 20.1494 46.2164 20.2561C46.2164 20.3841 46.163 20.5334 46.0564 20.7041C44.7337 22.8588 43.4324 23.9361 42.1524 23.9361C41.043 23.9361 40.4884 23.0934 40.4884 21.4081C40.4884 20.8748 40.5524 20.2561 40.6804 19.5521C39.0164 22.5174 37.619 24.0001 36.4884 24.0001ZM42.1204 17.7281C46.259 12.1174 48.3284 8.33074 48.3284 6.36807C48.3284 5.89874 48.1364 5.66407 47.7524 5.66407C46.6857 5.66407 45.5017 7.40274 44.2004 10.8801C43.3257 13.1841 42.6324 15.4668 42.1204 17.7281ZM37.0324 23.0081C37.523 23.0081 38.131 22.5281 38.8564 21.5681C39.0057 21.3974 39.187 21.1308 39.4004 20.7681C39.635 20.3841 39.9124 19.9148 40.2324 19.3601C40.595 18.7414 40.851 18.2508 41.0004 17.8881C41.171 17.5254 41.2564 17.2908 41.2564 17.1841C41.2564 17.1414 41.2457 17.1201 41.2244 17.1201C41.2244 17.1201 41.2137 17.1094 41.1924 17.0881C41.171 17.0241 41.0537 16.9921 40.8404 16.9921C39.987 16.9921 39.059 17.6534 38.0564 18.9761C37.0537 20.2988 36.5524 21.4081 36.5524 22.3041C36.5524 22.7734 36.7124 23.0081 37.0324 23.0081ZM45.7071 24.0001C45.0458 24.0001 44.7151 23.6374 44.7151 22.9121C44.7151 21.5894 45.3871 20.0641 46.7311 18.3361C47.4351 17.4188 48.1285 16.7361 48.8111 16.2881C49.4938 15.8188 50.1658 15.6161 50.8271 15.6801C51.1898 14.4428 51.5631 13.2908 51.9471 12.2241C52.3311 11.1574 52.7471 10.1654 53.1951 9.24807C54.6458 6.2614 56.0645 4.76807 57.4511 4.76807C58.3471 4.76807 58.7951 5.28007 58.7951 6.30407C58.7951 8.54407 56.2458 12.6614 51.1471 18.6561C51.0191 19.3814 50.9551 20.0854 50.9551 20.7681C50.9551 22.3894 51.2965 23.2001 51.9791 23.2001C52.4271 23.2001 53.0778 22.6881 53.9311 21.6641C54.7845 20.6188 55.2538 20.0961 55.3391 20.0961C55.4031 20.0961 55.4351 20.1494 55.4351 20.2561C55.4351 20.3841 55.3818 20.5334 55.2751 20.7041C53.9525 22.8588 52.6511 23.9361 51.3711 23.9361C50.2618 23.9361 49.7071 23.0934 49.7071 21.4081C49.7071 20.8748 49.7711 20.2561 49.8991 19.5521C48.2351 22.5174 46.8378 24.0001 45.7071 24.0001ZM51.3391 17.7281C55.4778 12.1174 57.5471 8.33074 57.5471 6.36807C57.5471 5.89874 57.3551 5.66407 56.9711 5.66407C55.9045 5.66407 54.7205 7.40274 53.4191 10.8801C52.5445 13.1841 51.8511 15.4668 51.3391 17.7281ZM46.2511 23.0081C46.7418 23.0081 47.3498 22.5281 48.0751 21.5681C48.2245 21.3974 48.4058 21.1308 48.6191 20.7681C48.8538 20.3841 49.1311 19.9148 49.4511 19.3601C49.8138 18.7414 50.0698 18.2508 50.2191 17.8881C50.3898 17.5254 50.4751 17.2908 50.4751 17.1841C50.4751 17.1414 50.4645 17.1201 50.4431 17.1201C50.4431 17.1201 50.4325 17.1094 50.4111 17.0881C50.3898 17.0241 50.2725 16.9921 50.0591 16.9921C49.2058 16.9921 48.2778 17.6534 47.2751 18.9761C46.2725 20.2988 45.7711 21.4081 45.7711 22.3041C45.7711 22.7734 45.9311 23.0081 46.2511 23.0081ZM60.7499 24.1921C59.5979 24.1921 59.0219 23.4988 59.0219 22.1121C59.0219 21.6428 59.1072 21.0881 59.2779 20.4481C59.4699 19.7868 59.7045 19.1788 59.9819 18.6241C59.6832 18.9014 59.3099 19.2641 58.8619 19.7121C58.4139 20.1601 57.9765 20.6508 57.5499 21.1841C56.7179 22.2081 56.0779 23.0934 55.6299 23.8401C55.3952 24.0108 55.1179 24.0961 54.7979 24.0961C54.2219 24.0961 53.9339 23.9574 53.9339 23.6801C53.9339 23.4454 54.0512 23.0081 54.2859 22.3681C54.5205 21.7281 54.8619 20.8961 55.3099 19.8721C55.9925 18.3148 56.7072 16.8214 57.4539 15.3921C58.2219 13.9414 59.0325 12.5548 59.8859 11.2321C62.4672 7.11474 64.5899 5.05607 66.2539 5.05607C67.1712 5.05607 67.6299 5.57874 67.6299 6.62407C67.6299 7.9894 66.5205 9.89874 64.3019 12.3521C63.8325 12.8641 63.1925 13.5254 62.3819 14.3361C61.5925 15.1254 60.6005 16.0641 59.4059 17.1521C59.1285 17.4081 58.7232 17.7601 58.1899 18.2081C57.6779 18.6561 57.1552 19.1468 56.6219 19.6801C56.5579 19.7654 56.4725 19.9361 56.3659 20.1921C56.2592 20.4481 56.1205 20.7788 55.9499 21.1841C55.6085 22.0161 55.4379 22.5388 55.4379 22.7521C55.4592 22.7734 55.4699 22.8054 55.4699 22.8481C55.7045 22.5494 56.0459 22.1548 56.4939 21.6641C56.9632 21.1521 57.4645 20.5974 57.9979 20.0001C58.4885 19.4668 58.9579 18.9654 59.4059 18.4961C59.8539 18.0268 60.2059 17.7068 60.4619 17.5361C60.6539 17.4081 60.8245 17.3441 60.9739 17.3441C61.4005 17.3441 61.6139 17.5681 61.6139 18.0161L60.8459 19.6801C60.3339 20.7894 60.0779 21.6641 60.0779 22.3041C60.0779 23.0508 60.4405 23.4241 61.1659 23.4241C61.7632 23.4241 62.4032 23.1148 63.0859 22.4961C63.5765 22.0694 64.0779 21.4934 64.5899 20.7681L65.2939 19.7761C65.3365 19.7121 65.3899 19.6801 65.4539 19.6801C65.5179 19.6801 65.5712 19.7121 65.6139 19.7761C65.6779 19.8401 65.6885 19.9148 65.6459 20.0001C65.6032 20.1281 65.5072 20.2988 65.3579 20.5121C64.6325 21.5788 63.8859 22.4641 63.1179 23.1681C62.3499 23.8508 61.5605 24.1921 60.7499 24.1921ZM57.0059 18.5601C57.7525 18.0054 58.6165 17.2694 59.5979 16.3521C60.6005 15.4348 61.6565 14.3254 62.7659 13.0241C65.2619 10.1441 66.5099 8.09607 66.5099 6.88007C66.5099 6.17607 66.2752 5.82407 65.8059 5.82407C64.6539 5.82407 63.0219 7.59474 60.9099 11.1361C60.1845 12.3521 59.4699 13.6001 58.7659 14.8801C58.0832 16.1601 57.4965 17.3868 57.0059 18.5601ZM64.9274 24.0961C64.266 24.0961 63.9354 23.7334 63.9354 23.0081C63.9354 21.9201 64.4687 20.5868 65.5354 19.0081C66.5807 17.4508 67.6154 16.4908 68.6394 16.1281C68.8314 16.0641 69.0127 16.0108 69.1834 15.9681C69.354 15.9254 69.5247 15.9041 69.6954 15.9041C70.4634 15.9041 71.018 16.1708 71.3594 16.7041C71.4234 16.7894 71.4554 16.8641 71.4554 16.9281C71.4554 16.9708 71.3807 17.0028 71.2314 17.0241C71.1034 17.0454 70.9967 17.1201 70.9114 17.2481C70.3994 18.0801 70.1434 19.3281 70.1434 20.9921C70.1434 22.5281 70.474 23.2961 71.1354 23.2961C71.5834 23.2961 72.234 22.8268 73.0874 21.8881C73.2154 21.7601 73.3967 21.5361 73.6314 21.2161C73.866 20.8961 74.1007 20.5761 74.3354 20.2561C74.57 19.9148 74.73 19.6908 74.8154 19.5841C74.8794 19.5201 74.9327 19.4881 74.9754 19.4881C75.0607 19.4881 75.1034 19.5628 75.1034 19.7121C75.1034 19.8188 75.0394 19.9681 74.9114 20.1601C74.442 20.9068 73.9087 21.6321 73.3114 22.3361C72.714 23.0401 72.202 23.4988 71.7754 23.7121C71.3914 23.9041 71.0074 24.0001 70.6234 24.0001C69.322 24.0001 68.6714 23.0828 68.6714 21.2481C68.6714 21.0988 68.6714 20.9494 68.6714 20.8001C68.6927 20.6294 68.714 20.4588 68.7354 20.2881C67.2847 22.8268 66.0154 24.0961 64.9274 24.0961ZM65.4714 23.1361C65.706 23.1361 65.9834 23.0081 66.3034 22.7521C66.6234 22.4748 66.954 22.1121 67.2954 21.6641C67.8074 20.9814 68.2874 20.2561 68.7354 19.4881C69.1834 18.7201 69.578 17.8881 69.9194 16.9921C69.8554 16.9708 69.7594 16.9601 69.6314 16.9601C68.7567 16.9601 67.8714 17.5041 66.9754 18.5921C65.674 20.1494 65.0234 21.4401 65.0234 22.4641C65.0234 22.9121 65.1727 23.1361 65.4714 23.1361ZM78.9439 24.1921C77.7279 24.1921 77.1199 23.4241 77.1199 21.8881C77.1199 21.2054 77.2265 20.5441 77.4399 19.9041C77.6745 19.2641 77.9412 18.6774 78.2399 18.1441C77.4932 18.8054 76.7039 19.6268 75.8719 20.6081C75.0612 21.5681 74.2612 22.6454 73.4719 23.8401C73.3439 24.0321 73.2479 24.1281 73.1839 24.1281C72.9919 24.1281 72.8959 23.9361 72.8959 23.5521C72.8959 23.4668 72.9172 23.3814 72.9599 23.2961C73.1945 22.7201 73.4292 22.0588 73.6639 21.3121C73.8985 20.5441 74.1332 19.6481 74.3679 18.6241C74.4105 18.4108 74.4532 18.1974 74.4959 17.9841C74.5385 17.7708 74.6025 17.4934 74.6879 17.1521C74.7305 17.0241 74.8799 16.8748 75.1359 16.7041C75.3492 16.5548 75.5625 16.4801 75.7759 16.4801C75.9252 16.4801 75.9999 16.5441 75.9999 16.6721C75.9999 16.7788 75.8719 17.2374 75.6159 18.0481C75.3599 18.8588 74.9865 20.0214 74.4959 21.5361C74.6239 21.3654 74.8905 21.0561 75.2959 20.6081C75.7012 20.1388 76.2345 19.5414 76.8959 18.8161L78.8799 16.6401C79.0292 16.4908 79.1999 16.4161 79.3919 16.4161C79.8825 16.4161 80.1279 16.6614 80.1279 17.1521C80.1279 17.2588 80.0852 17.3868 79.9999 17.5361C78.8052 19.4988 78.2079 21.0561 78.2079 22.2081C78.2079 23.0188 78.5919 23.4241 79.3599 23.4241C79.9145 23.4241 80.5545 23.1148 81.2799 22.4961C81.5785 22.2614 81.8345 22.0054 82.0479 21.7281C82.2825 21.4294 82.5279 21.1094 82.7839 20.7681C83.2319 20.1494 83.4879 19.8401 83.5519 19.8401C83.6159 19.8401 83.6479 19.9041 83.6479 20.0321C83.6479 20.1601 83.5839 20.3414 83.4559 20.5761C82.0052 22.9868 80.5012 24.1921 78.9439 24.1921ZM85.0341 24.1601C84.3728 24.1601 83.9035 23.9361 83.6261 23.4881C83.3488 23.0401 83.2101 22.4854 83.2101 21.8241C83.2101 21.0134 83.3488 20.1708 83.6261 19.2961C83.9035 18.4001 84.2021 17.6641 84.5221 17.0881H84.3301C83.5835 17.0881 83.0821 17.0348 82.8261 16.9281C82.5915 16.8001 82.4741 16.5974 82.4741 16.3201C82.4741 16.1708 82.5915 16.0961 82.8261 16.0961L84.8741 16.2241C85.4075 15.1574 85.9408 14.1654 86.4741 13.2481C87.0288 12.3308 87.4875 11.6908 87.8501 11.3281C88.1488 11.0294 88.5648 10.8801 89.0981 10.8801C89.5675 10.8801 89.8021 10.9761 89.8021 11.1681C89.8021 11.2108 89.7915 11.2428 89.7701 11.2641L88.3941 12.8961C88.0741 13.2801 87.7221 13.7708 87.3381 14.3681C86.9541 14.9654 86.5701 15.6054 86.1861 16.2881C86.4208 16.3094 86.6341 16.3201 86.8261 16.3201C87.0395 16.3201 87.2208 16.3201 87.3701 16.3201C87.4555 16.3201 87.5515 16.3201 87.6581 16.3201C87.7648 16.2988 87.8928 16.2881 88.0421 16.2881H88.7141C88.9701 16.2881 89.0981 16.3521 89.0981 16.4801C89.0981 16.8001 87.9995 16.9921 85.8021 17.0561C85.5675 17.5041 85.3328 18.0268 85.0981 18.6241C84.8635 19.2001 84.6715 19.7761 84.5221 20.3521C84.3941 20.9281 84.3301 21.4508 84.3301 21.9201C84.3301 22.9014 84.7461 23.3921 85.5781 23.3921C86.2608 23.3921 87.0608 22.9761 87.9781 22.1441C88.3408 21.8028 88.6501 21.4614 88.9061 21.1201C89.1835 20.7574 89.4501 20.3948 89.7061 20.0321C89.8341 19.8401 89.9515 19.7441 90.0581 19.7441C90.1648 19.7441 90.2181 19.8081 90.2181 19.9361C90.2181 20.0214 90.1968 20.1068 90.1541 20.1921C90.1328 20.2561 90.1115 20.3094 90.0901 20.3521C89.8128 20.7148 89.5035 21.1094 89.1621 21.5361C88.8421 21.9628 88.4581 22.3788 88.0101 22.7841C86.9648 23.7014 85.9728 24.1601 85.0341 24.1601Z" fill="white"/>
<path d="M103.971 24.1898C103.275 24.1898 102.629 24.0251 102.033 23.6958C101.451 23.3538 100.982 22.8218 100.627 22.0998C100.285 21.3778 100.114 20.4341 100.114 19.2688V19.0598C100.114 17.9958 100.279 17.0965 100.608 16.3618C100.95 15.6271 101.413 15.0698 101.995 14.6898C102.578 14.2971 103.237 14.1008 103.971 14.1008C104.655 14.1008 105.257 14.2338 105.776 14.4998C106.296 14.7658 106.695 15.1458 106.973 15.6398V10.3198H108.246V23.9998H107.239L107.049 22.4418C106.771 23.0245 106.359 23.4615 105.814 23.7528C105.282 24.0441 104.668 24.1898 103.971 24.1898ZM104.18 23.1448C105.004 23.1448 105.675 22.8408 106.194 22.2328C106.726 21.6248 106.992 20.6748 106.992 19.3828V18.8888C106.992 17.5968 106.726 16.6468 106.194 16.0388C105.675 15.4308 105.004 15.1268 104.18 15.1268C103.357 15.1268 102.686 15.4371 102.166 16.0578C101.647 16.6658 101.387 17.6095 101.387 18.8888V19.3638C101.387 20.6685 101.647 21.6248 102.166 22.2328C102.686 22.8408 103.357 23.1448 104.18 23.1448ZM115.877 24.1898C114.927 24.1898 114.135 23.9808 113.502 23.5628C112.881 23.1448 112.413 22.5685 112.096 21.8338C111.792 21.0865 111.64 20.2441 111.64 19.3068V18.9838C111.64 18.0085 111.811 17.1598 112.153 16.4378C112.508 15.7031 113.002 15.1331 113.635 14.7278C114.281 14.3098 115.047 14.1008 115.934 14.1008C116.757 14.1008 117.467 14.2845 118.062 14.6518C118.67 15.0065 119.139 15.4815 119.468 16.0768C119.797 16.6721 119.962 17.3371 119.962 18.0718V19.3258H112.951V19.5348C112.951 20.7128 113.23 21.6121 113.787 22.2328C114.344 22.8535 115.047 23.1638 115.896 23.1638C116.808 23.1638 117.505 22.9421 117.986 22.4988C118.48 22.0555 118.727 21.3588 118.727 20.4088H119.962C119.962 21.1815 119.791 21.8528 119.449 22.4228C119.107 22.9801 118.626 23.4171 118.005 23.7338C117.397 24.0378 116.688 24.1898 115.877 24.1898ZM112.97 18.3188H118.708V17.9958C118.708 17.4638 118.594 16.9825 118.366 16.5518C118.138 16.1085 117.815 15.7601 117.397 15.5068C116.979 15.2535 116.485 15.1268 115.915 15.1268C115.269 15.1268 114.724 15.2915 114.281 15.6208C113.85 15.9375 113.521 16.3365 113.293 16.8178C113.078 17.2991 112.97 17.7805 112.97 18.2618V18.3188ZM127.231 24.1898C126.459 24.1898 125.775 24.0758 125.179 23.8478C124.597 23.6198 124.134 23.3031 123.792 22.8978C123.463 22.4798 123.298 21.9985 123.298 21.4538C123.298 21.4285 123.298 21.3715 123.298 21.2828C123.298 21.1941 123.305 21.0991 123.317 20.9978H124.476V21.2448C124.476 21.8401 124.736 22.3088 125.255 22.6508C125.787 22.9928 126.528 23.1638 127.478 23.1638C128.302 23.1638 128.941 23.0055 129.397 22.6888C129.866 22.3595 130.1 21.9288 130.1 21.3968C130.1 21.0548 130.012 20.7761 129.834 20.5608C129.657 20.3328 129.347 20.1365 128.903 19.9718C128.473 19.8071 127.871 19.6615 127.098 19.5348C126.224 19.3575 125.528 19.1611 125.008 18.9458C124.489 18.7178 124.115 18.4328 123.887 18.0908C123.659 17.7488 123.545 17.3245 123.545 16.8178C123.545 16.2351 123.704 15.7411 124.02 15.3358C124.337 14.9305 124.78 14.6265 125.35 14.4238C125.933 14.2085 126.623 14.1008 127.421 14.1008C128.131 14.1008 128.758 14.2148 129.302 14.4428C129.847 14.6581 130.278 14.9621 130.594 15.3548C130.911 15.7348 131.069 16.1908 131.069 16.7228C131.069 16.7481 131.069 16.7861 131.069 16.8368C131.069 16.8748 131.063 16.9318 131.05 17.0078H129.872C129.872 16.4758 129.746 16.0768 129.492 15.8108C129.252 15.5321 128.929 15.3485 128.523 15.2598C128.131 15.1711 127.713 15.1268 127.269 15.1268C125.61 15.1268 124.78 15.6651 124.78 16.7418C124.78 17.0331 124.856 17.2738 125.008 17.4638C125.173 17.6411 125.464 17.7995 125.882 17.9388C126.3 18.0781 126.889 18.2301 127.649 18.3948C128.574 18.5848 129.302 18.8001 129.834 19.0408C130.379 19.2815 130.765 19.5855 130.993 19.9528C131.221 20.3075 131.335 20.7698 131.335 21.3398C131.335 21.9605 131.177 22.4798 130.86 22.8978C130.544 23.3158 130.081 23.6388 129.473 23.8668C128.865 24.0821 128.118 24.1898 127.231 24.1898ZM138.548 23.9998V15.3738H134.919V14.2908H139.821V23.9998H138.548ZM134.919 23.9998V22.9358H143.336V23.9998H134.919ZM138.358 12.2388V10.7188H139.783V12.2388H138.358ZM148.041 27.5718C147.281 27.5718 146.679 27.3501 146.236 26.9068C145.805 26.4635 145.59 25.9125 145.59 25.2538C145.59 24.7725 145.716 24.3481 145.97 23.9808C146.236 23.6008 146.578 23.3221 146.996 23.1448C146.717 22.9675 146.502 22.7395 146.35 22.4608C146.198 22.1695 146.122 21.8591 146.122 21.5298C146.122 21.0865 146.255 20.6875 146.521 20.3328C146.799 19.9781 147.198 19.7438 147.718 19.6298C147.274 19.3765 146.939 19.0408 146.711 18.6228C146.495 18.1921 146.388 17.7045 146.388 17.1598C146.388 16.1971 146.717 15.4498 147.376 14.9178C148.047 14.3731 148.991 14.1008 150.207 14.1008C151.043 14.1008 151.72 14.2275 152.24 14.4808C152.734 14.3541 153.12 14.1198 153.399 13.7778C153.69 13.4358 153.861 13.0241 153.912 12.5428H155.033C155.033 13.1381 154.849 13.6701 154.482 14.1388C154.114 14.5948 153.665 14.8671 153.133 14.9558L153.114 15.0128C153.405 15.2535 153.627 15.5638 153.779 15.9438C153.931 16.3111 154.007 16.7165 154.007 17.1598C154.007 18.1098 153.684 18.8571 153.038 19.4018C152.392 19.9465 151.48 20.2188 150.302 20.2188H148.744C148.338 20.2188 148.009 20.3265 147.756 20.5418C147.502 20.7571 147.376 21.0421 147.376 21.3968C147.376 21.7515 147.496 22.0365 147.737 22.2518C147.99 22.4545 148.319 22.5558 148.725 22.5558H152.316C153.152 22.5558 153.81 22.7711 154.292 23.2018C154.786 23.6325 155.033 24.2025 155.033 24.9118C155.033 25.6718 154.786 26.3051 154.292 26.8118C153.798 27.3185 153.114 27.5718 152.24 27.5718H148.041ZM148.383 26.5648H152.202C152.721 26.5648 153.114 26.4255 153.38 26.1468C153.658 25.8808 153.798 25.5388 153.798 25.1208C153.798 24.7155 153.671 24.3735 153.418 24.0948C153.164 23.8288 152.759 23.6958 152.202 23.6958H148.383C147.863 23.6958 147.464 23.8351 147.186 24.1138C146.92 24.3925 146.787 24.7345 146.787 25.1398C146.787 25.5325 146.92 25.8681 147.186 26.1468C147.464 26.4255 147.863 26.5648 148.383 26.5648ZM150.207 19.2308C151.017 19.2308 151.644 19.0535 152.088 18.6988C152.544 18.3315 152.772 17.8185 152.772 17.1598C152.772 16.5011 152.544 15.9945 152.088 15.6398C151.644 15.2725 151.017 15.0888 150.207 15.0888C149.409 15.0888 148.782 15.2725 148.326 15.6398C147.87 15.9945 147.642 16.5011 147.642 17.1598C147.642 17.8185 147.87 18.3315 148.326 18.6988C148.782 19.0535 149.409 19.2308 150.207 19.2308ZM157.628 23.9998V14.2908H158.635L158.825 15.8488C159.116 15.2408 159.541 14.7975 160.098 14.5188C160.655 14.2401 161.257 14.1008 161.903 14.1008C162.967 14.1008 163.822 14.4111 164.468 15.0318C165.127 15.6398 165.456 16.5645 165.456 17.8058V23.9998H164.183V18.2998C164.183 17.1978 163.961 16.3998 163.518 15.9058C163.075 15.4118 162.454 15.1648 161.656 15.1648C161.099 15.1648 160.611 15.3105 160.193 15.6018C159.775 15.8805 159.452 16.2668 159.224 16.7608C159.009 17.2548 158.901 17.8248 158.901 18.4708V23.9998H157.628Z" fill="white"/>
<path d="M94.25 22C94.6642 22 95 22.3358 95 22.75C95 23.1642 94.6642 23.5 94.25 23.5C93.8358 23.5 93.5 23.1642 93.5 22.75C93.5 22.3358 93.8358 22 94.25 22Z" fill="#6B7FD4" stroke="#6B7FD4"/>
</svg>
