<svg width="122" height="44" viewBox="0 0 122 44" fill="none" xmlns="http://www.w3.org/2000/svg">
<path d="M10.5333 35.2963C4.75103 35.2963 1.21533 31.1271 1.21533 25.3488C1.21533 19.534 4.75103 15.4014 10.5333 15.4014C16.3157 15.4014 19.8145 19.534 19.8145 25.3488C19.8145 31.1271 16.1683 35.2963 10.5333 35.2963ZM10.5333 32.6631C14.4742 32.6631 16.3525 29.6277 16.3525 25.3488C16.3525 21.1065 14.4742 18.0345 10.5333 18.0345C6.55571 18.0345 4.7142 21.1065 4.7142 25.3488C4.7142 29.6277 6.55571 32.6631 10.5333 32.6631ZM21.1453 34.8574L28.806 25.9705C27.8852 26.3363 26.854 26.4825 25.7859 26.4825C20.2614 26.4825 16.652 22.5328 16.652 17.5957C16.652 12.2928 20.5929 8.27002 26.4489 8.27002C32.3785 8.27002 36.0615 12.2928 36.0615 17.5591C36.0615 20.8871 34.3305 23.7397 32.71 25.7145L25.1598 34.8574H21.1453ZM26.3384 23.8494C30.4634 23.8494 32.71 20.8871 32.71 17.3763C32.71 13.902 30.5002 10.9031 26.4489 10.9031C22.4344 10.9031 20.0772 13.902 20.0772 17.4128C20.0772 20.8871 22.4344 23.8494 26.3384 23.8494Z" fill="#B8B5AD"/>
<path d="M48.5514 29.6483C45.3656 29.6483 43.3215 27.9294 43.3215 25.2597H45.0525C45.1078 26.9968 46.4521 28.1306 48.5698 28.1306C50.485 28.1306 51.5531 27.2894 51.5531 25.9546C51.5531 24.5831 50.7796 24.0346 48.0174 23.358C44.9789 22.6266 43.7635 21.5843 43.7635 19.7191C43.7635 17.5248 45.5313 16.1351 48.3488 16.1351C51.1111 16.1351 52.9158 17.6894 52.9158 20.0483H51.2216C51.1479 18.6037 50.2272 17.6528 48.2383 17.6528C46.3784 17.6528 45.4577 18.4757 45.4577 19.5546C45.4577 20.7431 46.2495 21.2368 48.9197 21.95C52.0134 22.7728 53.3209 23.6871 53.3209 25.8083C53.3209 28.222 51.6083 29.6483 48.5514 29.6483ZM59.4692 29.6483C56.5778 29.6483 54.8099 27.5637 54.8099 24.6746C54.8099 21.7671 56.5778 19.7008 59.4692 19.7008C62.3604 19.7008 64.1098 21.7671 64.1098 24.6746C64.1098 27.5637 62.2867 29.6483 59.4692 29.6483ZM59.4692 28.3317C61.4397 28.3317 62.3788 26.814 62.3788 24.6746C62.3788 22.5534 61.4397 21.0174 59.4692 21.0174C57.4801 21.0174 56.5594 22.5534 56.5594 24.6746C56.5594 26.814 57.4801 28.3317 59.4692 28.3317ZM65.9934 29.4288V15.5317H67.706V29.4288H65.9934ZM78.229 19.9203V29.4288H76.5164V27.6003C75.9272 28.6974 74.7486 29.6483 73.0912 29.6483C71.2313 29.6483 70.0712 28.606 70.0712 26.0826V19.9203H71.7653V25.6803C71.7653 27.6003 72.5204 28.2403 73.7726 28.2403C75.1721 28.2403 76.185 27.1614 76.5164 26.0643V19.9203H78.229ZM84.6456 29.5203C82.7304 29.5203 81.7728 28.7706 81.7728 26.7774V21.2368H79.5814V19.9203H81.7728V16.3546H83.4854V19.9203H86.7449V21.2368H83.4854V26.6311C83.4854 27.838 84.001 28.2037 85.0691 28.2037C85.5847 28.2037 86.0451 28.1306 86.5607 28.0208V29.3008C85.861 29.4471 85.2348 29.5203 84.6456 29.5203ZM88.507 15.5317H90.2201V18.4026H88.507V15.5317ZM88.507 29.4288V19.9203H90.2201V29.4288H88.507ZM96.6948 29.6483C93.8036 29.6483 92.0358 27.5637 92.0358 24.6746C92.0358 21.7671 93.8036 19.7008 96.6948 19.7008C99.5859 19.7008 101.335 21.7671 101.335 24.6746C101.335 27.5637 99.5123 29.6483 96.6948 29.6483ZM96.6948 28.3317C98.6652 28.3317 99.6044 26.814 99.6044 24.6746C99.6044 22.5534 98.6652 21.0174 96.6948 21.0174C94.7059 21.0174 93.7852 22.5534 93.7852 24.6746C93.7852 26.814 94.7059 28.3317 96.6948 28.3317ZM103.108 29.4288V19.9203H104.821V21.7671C105.41 20.6883 106.589 19.7008 108.265 19.7008C110.125 19.7008 111.285 20.7431 111.285 23.2666V29.4288H109.591V23.6688C109.591 21.7488 108.836 21.1088 107.583 21.1088C106.147 21.1088 105.116 22.2426 104.821 23.358V29.4288H103.108ZM119.451 26.9054C119.451 24.5831 113.374 25.9911 113.374 22.4437C113.374 20.7066 114.847 19.7374 117.075 19.7374C119.911 19.7374 120.85 21.31 120.85 22.5168H119.211C119.119 21.6757 118.511 21.054 117.001 21.054C115.897 21.054 115.031 21.3831 115.031 22.2608C115.031 24.5831 121.108 23.1568 121.108 26.8323C121.108 28.6426 119.561 29.6483 117.222 29.6483C114.35 29.6483 113.005 28.0574 113.005 26.4117H114.644C114.736 27.966 116.191 28.3317 117.222 28.3317C118.364 28.3317 119.451 27.8928 119.451 26.9054Z" fill="#B8B5AD"/>
</svg>
