<svg xmlns="http://www.w3.org/2000/svg" height="20px" viewBox="0 -960 960 960" width="20px" fill="#777770"><path d="M454-759.54v-131.69h52v131.69h-52Zm241.92 102.77-40.15-38.15 95.15-93.54 38.54 36.15-93.54 95.54ZM759.54-454v-52h131.69v52H759.54ZM454-68.77v-131.31h52v131.31h-52ZM264.85-658.38l-96.31-93.54 40.54-36.16 92.54 92.16-36.77 37.54Zm487.46 489.84-92.54-96.54 36.54-36.15 94.77 91.92-38.77 40.77ZM68.77-454v-52h131.69v52H68.77Zm138.92 285.46-36.77-39.54 93.16-91.15 17.69 17.46 17.08 18.08-91.16 95.15Zm116.54-155.69Q260-388.46 260-480t64.23-155.77Q388.46-700 480-700t155.77 64.23Q700-571.54 700-480t-64.23 155.77Q571.54-260 480-260t-155.77-64.23ZM599-361q49-49 49-119t-49-119q-49-49-119-49t-119 49q-49 49-49 119t49 119q49 49 119 49t119-49ZM480-480Z"/></svg>