<svg width="75" height="31" viewBox="0 0 75 31" fill="none" xmlns="http://www.w3.org/2000/svg">
<path d="M61.2988 27.3008L63.0898 27.2129L60.4766 29.9844L59.0527 27.1836L61.2988 27.3008ZM61.7256 24.9668L65.375 24.792L63.293 26.999L61.1348 26.8926L58.9658 26.999L57.8428 24.7822L61.7256 24.9668ZM65.5684 24.5781L61.7158 24.3838L57.7363 24.5781L56.623 22.3711L65.0938 22.7793C65.2486 22.6821 65.4037 22.5756 65.5488 22.4688L67.6494 22.3711L65.5684 24.5781ZM26.167 9.1582C31.9465 9.1582 31.2301 12.7854 30.291 17.2285L30.2432 17.4609H23.2822L22.8955 19.3281C22.7309 20.0961 22.5661 21.117 23.6113 21.1172C24.6084 21.1172 24.9089 20.2033 25.209 18.7549H29.8174C29.4108 20.6992 28.5971 22.0506 27.4258 22.8867C26.2545 23.7227 24.7347 24.1211 23.002 24.1211C17.4064 24.1211 17.5319 20.6501 18.3838 16.625C19.226 12.6293 20.5622 9.15834 26.167 9.1582ZM38.4326 9.14844C44.086 9.14844 43.438 12.2499 43.1572 13.5625H38.8594C38.9368 13.2028 38.9746 12.7753 38.8682 12.542C38.7423 12.2795 38.4814 12.1436 37.9297 12.1436C37.407 12.1436 36.816 12.3278 36.6514 13.1152C36.5062 13.7958 37.1264 14.0585 39.9629 15.1377C41.2794 15.6433 42.8567 16.3242 42.2178 19.3477C41.4723 22.8766 38.5397 24.1112 35.4033 24.1113C31.7053 24.1113 29.8946 23.1393 30.6592 19.1729H35.1025C35.0348 19.7752 34.967 20.2223 35.0732 20.5625C35.1894 20.9028 35.4514 21.1172 36.0322 21.1172C36.9225 21.1171 37.2513 20.2715 37.3096 20.0088C37.4548 19.3185 37.3387 19.1143 35.6445 18.4531C32.6243 17.2962 31.3173 16.5372 31.8691 13.9316C32.4791 11.0638 34.5026 9.14855 38.4326 9.14844ZM51.2598 9.52832H53.041L52.335 12.8438H50.5537L49.2178 19.1729C49.0145 20.0866 49.0625 20.4852 49.9043 20.4854C50.1753 20.4951 50.4565 20.4753 50.7275 20.4072L50.0117 23.8008C49.5858 23.8494 48.22 23.9561 47.4648 23.9561C44.5608 23.956 43.1476 23.8489 43.8252 20.6406L45.4805 12.834H43.9316L44.6289 9.51855H46.168L47.0586 5.34766H52.1406L51.2598 9.52832ZM4.40527 18.2783H4.45312L8.91602 4.96777H13.5244L12.5654 18.2783H12.624L16.5635 4.96777H21.4814L14.4248 23.7422H8.81934L9.92285 11.1221H9.86523L5.70215 23.7422H0L0.910156 4.96777H5.99219L4.40527 18.2783ZM67.8623 22.167L66.0811 22.0801C66.2263 21.9537 66.3812 21.8168 66.5264 21.6807L56.5166 22.167L55.4033 19.96L67.6309 20.5537C67.7664 20.3884 67.9016 20.2228 68.0371 20.0479L69.9443 19.96L67.8623 22.167ZM70.1377 19.7363L68.3174 19.6592C68.4335 19.4842 68.5595 19.3087 68.666 19.1143L55.3066 19.7559L54.1934 17.5488L69.1406 18.2686C69.2374 18.0645 69.3338 17.87 69.4209 17.6562L72.2188 17.5195L70.1377 19.7363ZM72.4131 17.335L69.6152 17.1992C69.6927 16.995 69.7604 16.7901 69.8281 16.5859L54.0869 17.3447L52.9541 15.1084L70.0117 15.9346C70.0601 15.7305 70.1089 15.5165 70.1572 15.3125L74.5234 15.0986L72.4131 17.335ZM25.4805 12.1436C24.7447 12.1436 24.3187 12.5423 24.0283 13.9326L23.8242 14.9629H26.0225L26.2256 13.9326C26.5256 12.5426 26.2933 12.1437 25.4805 12.1436ZM74.5518 14.9043L70.2637 14.7002C70.283 14.5058 70.3117 14.292 70.3311 14.0879L52.9834 14.9238L55.084 12.6973L70.3701 13.4268C70.3701 13.3005 70.3799 13.1644 70.3799 13.0381V12.8145L73.4199 12.668L74.5518 14.9043ZM73.3037 12.4834L70.3506 12.3379C70.3409 12.1434 70.3221 11.9582 70.3027 11.7832L55.2676 12.5127L57.3496 10.3057L70.1768 10.9277C70.1381 10.7431 70.0992 10.5489 70.0605 10.3643L72.1904 10.2666L73.3037 12.4834ZM72.0742 10.0625L69.9443 9.95605C69.9153 9.80059 69.8667 9.64479 69.8184 9.49902L57.543 10.0918L59.624 7.88477L69.3828 8.36133C69.3151 8.21558 69.2474 8.06964 69.1797 7.93359L70.9609 7.8457L72.0742 10.0625ZM70.8545 7.63184L68.9756 7.54492C68.9369 7.43801 68.8794 7.34035 68.8213 7.24316L59.8184 7.68066L61.8896 5.4834L67.8047 5.76562C67.737 5.67821 67.6693 5.60016 67.6016 5.52246L69.7412 5.41504L70.8545 7.63184ZM69.6445 5.21094L67.2236 5.09473L67.1562 5.0166L62.1025 5.25977L64.1748 3.07227L65.5879 3.13086L68.5215 2.99414L69.6445 5.21094ZM71.2031 3.07227C71.2031 3.08185 71.2026 3.08203 71.2119 3.08203C71.7347 3.08203 72.161 3.51991 72.1514 4.04492C72.1511 4.56961 71.7158 4.9968 71.1934 4.9873C70.6707 4.9873 70.2444 4.55026 70.2539 4.02539C70.2539 3.50038 70.6804 3.07227 71.2031 3.07227ZM71.2607 3.22754C70.8154 3.21782 70.4374 3.56839 70.4277 4.01562V4.03516C70.4086 4.47249 70.7481 4.83212 71.1836 4.85156H71.2119C71.6572 4.86128 72.0352 4.51071 72.0449 4.06348C72.0543 3.61646 71.7059 3.23727 71.2607 3.22754ZM71.2705 3.48047C71.5318 3.4805 71.6572 3.58789 71.6572 3.80176C71.6571 4.0154 71.5317 4.0831 71.3672 4.10254L71.6865 4.59863H71.5029L71.2031 4.12207H71.0186V4.59863H70.8447V3.48047H71.2705ZM71.0088 3.9668H71.1934C71.348 3.96678 71.4833 3.95687 71.4834 3.78223C71.4834 3.63639 71.3574 3.60742 71.2412 3.60742H71.0088V3.9668ZM68.4238 2.7998L66.9434 2.73242L64.3682 2.8584L67.0107 0L68.4238 2.7998Z" fill="#B8B5AD"/>
</svg>
